<?xml version="1.0" standalone="no"?>
<!DOCTYPE svg PUBLIC "-//W3C//DTD SVG 20010904//EN"
 "http://www.w3.org/TR/2001/REC-SVG-20010904/DTD/svg10.dtd">
<svg version="1.0" xmlns="http://www.w3.org/2000/svg"
 width="759.000000pt" height="759.000000pt" viewBox="0 0 759.000000 759.000000"
 preserveAspectRatio="xMidYMid meet">

<g transform="translate(0.000000,759.000000) scale(0.100000,-0.100000)"
fill="#000000" stroke="none">
<path d="M0 3795 l0 -3795 3795 0 3795 0 0 3795 0 3795 -3795 0 -3795 0 0
-3795z m4205 3090 c155 -21 301 -52 438 -91 93 -27 137 -34 205 -34 234 -1
507 -67 727 -177 446 -223 761 -610 889 -1093 26 -98 50 -157 109 -270 166
-320 269 -650 324 -1035 25 -179 25 -614 -1 -795 -54 -389 -176 -766 -351
-1085 -33 -61 -58 -124 -76 -195 -141 -548 -515 -971 -1042 -1179 -163 -64
-404 -110 -577 -111 -64 0 -111 -7 -188 -30 -133 -38 -304 -74 -467 -97 -179
-25 -614 -25 -795 1 -158 22 -332 58 -459 96 -79 24 -120 30 -193 30 -240 1
-511 66 -733 177 -453 227 -772 624 -895 1116 -26 103 -46 155 -100 260 -160
309 -263 644 -317 1022 -25 179 -25 614 1 795 53 379 169 745 336 1057 33 62
56 123 71 185 131 563 514 1005 1052 1217 164 65 404 110 582 111 69 0 113 7
193 30 180 52 422 95 632 114 99 9 530 -4 635 -19z"/>
<path d="M4220 6223 c-58 -53 -140 -133 -184 -177 -43 -45 -90 -88 -103 -97
-36 -24 -191 -167 -309 -284 -56 -55 -138 -131 -184 -170 -46 -38 -137 -125
-204 -193 -67 -68 -132 -129 -146 -137 -30 -16 -74 -56 -255 -234 -77 -75
-161 -152 -186 -171 -54 -41 -100 -93 -123 -137 -19 -37 -70 -270 -86 -390 -6
-45 -22 -131 -36 -190 -13 -59 -40 -180 -59 -268 -19 -88 -55 -254 -80 -370
-25 -115 -63 -293 -85 -395 -21 -102 -53 -250 -70 -330 -17 -80 -38 -192 -46
-250 -9 -58 -31 -177 -50 -265 -19 -88 -48 -223 -64 -300 -16 -77 -41 -194
-55 -260 -43 -200 -47 -228 -36 -257 6 -17 21 -30 38 -34 29 -8 81 2 448 81
189 41 485 103 665 140 91 18 212 45 270 58 107 25 155 34 340 63 132 20 222
44 286 77 36 18 142 117 386 359 416 413 416 412 585 583 77 77 160 160 185
185 25 25 120 119 211 210 90 91 185 185 210 210 127 127 227 239 246 277 21
42 21 50 21 700 l0 658 -105 105 -105 105 0 -678 0 -677 -865 -865 c-514 -514
-880 -873 -903 -885 -22 -11 -61 -23 -88 -26 -41 -4 -57 0 -99 23 -81 45 -113
133 -82 221 13 33 78 114 134 167 18 17 106 104 195 194 90 91 178 178 196
195 19 17 102 101 186 186 84 85 168 170 187 189 19 18 107 106 195 195 89 88
177 176 195 195 19 18 107 106 195 195 89 88 189 188 223 221 l61 60 0 680 0
680 -102 105 -103 105 -3 -675 -2 -675 -888 -887 c-801 -800 -891 -888 -930
-898 -52 -13 -92 -6 -147 25 -85 49 -113 174 -58 260 15 24 38 50 52 59 14 8
51 42 81 76 84 92 291 300 349 349 50 42 111 119 111 140 0 6 -45 57 -100 113
l-99 103 -116 -120 c-122 -125 -185 -188 -392 -392 -134 -132 -150 -140 -239
-130 -58 6 -108 41 -139 98 -29 55 -33 117 -8 157 14 22 249 274 334 357 16
16 319 318 384 383 33 33 387 387 394 393 58 58 359 359 366 367 6 6 74 74
152 149 l142 138 11 415 c6 228 13 526 17 663 4 153 3 247 -3 247 -5 0 -57
-43 -114 -97z m-540 -960 c-1 -12 -79 -159 -80 -150 -1 16 63 157 71 157 5 0
9 -3 9 -7z m-277 -165 c4 -54 3 -98 -2 -98 -12 0 -21 62 -21 145 0 101 16 68
23 -47z m112 2 c-7 -34 -16 -64 -19 -67 -12 -13 -15 4 -6 42 5 22 12 53 15 68
3 15 9 25 14 23 5 -3 3 -33 -4 -66z m292 -27 c-53 -53 -99 -94 -102 -91 -6 5
36 50 128 136 93 87 77 58 -26 -45z m-103 25 c-47 -66 -64 -85 -64 -72 0 16
80 124 91 124 6 0 -6 -24 -27 -52z m-108 -33 c-6 -19 -14 -35 -18 -35 -10 0
-10 1 3 39 15 43 29 40 15 -4z m-301 -52 c28 -62 19 -98 -9 -39 -18 39 -32 96
-22 96 3 0 18 -26 31 -57z m555 50 c0 -7 -214 -227 -284 -292 -51 -47 -322
-320 -361 -363 -46 -50 -155 -148 -155 -139 0 12 26 39 103 104 37 32 67 63
67 69 0 5 -12 25 -27 44 -34 46 -42 123 -19 194 51 157 188 269 339 278 59 4
72 1 102 -19 19 -13 35 -27 35 -31 0 -23 34 1 105 76 75 79 95 95 95 79z
m-682 -92 c50 -49 80 -91 65 -91 -10 0 -133 122 -133 132 0 18 21 5 68 -41z
m662 -1 c0 -8 -46 -54 -210 -214 -8 -8 -96 -96 -194 -195 -99 -100 -181 -179
-184 -176 -5 4 577 595 586 595 1 0 2 -4 2 -10z m-699 -141 c43 -19 64 -39 40
-39 -18 0 -111 43 -111 51 0 14 17 11 71 -12z m595 -43 c-16 -11 -52 -46 -80
-76 -117 -126 -325 -334 -330 -330 -2 3 92 103 210 224 119 120 218 215 222
211 4 -4 -6 -17 -22 -29z m-628 -50 c43 -4 17 -21 -28 -18 -107 6 -170 14
-170 22 0 8 103 5 198 -4z m-3 -105 c-16 -15 -139 -41 -149 -31 -5 5 1 11 15
14 13 3 42 9 64 14 54 13 81 14 70 3z m-10 -90 c-10 -10 -232 -111 -243 -111
-20 0 33 31 121 71 99 46 142 59 122 40z m11 -80 c-9 -15 -116 -85 -121 -79
-3 3 21 23 52 46 57 39 80 51 69 33z m30 -75 c-10 -6 -55 -46 -98 -89 -44 -43
-82 -76 -84 -74 -7 6 110 125 155 158 20 14 38 24 41 21 3 -2 -4 -9 -14 -16z
m64 -61 c-19 -19 -38 -35 -44 -35 -6 0 7 18 29 40 21 22 41 37 44 35 2 -3 -11
-21 -29 -40z m-592 -1666 c96 -16 102 -19 102 -37 0 -50 41 -168 77 -219 21
-31 48 -70 59 -87 19 -29 53 -55 124 -98 34 -21 93 -39 165 -52 l60 -11 6 -46
c4 -26 19 -82 34 -124 14 -43 23 -81 18 -86 -4 -4 -55 -17 -113 -29 -202 -42
-286 -60 -425 -90 -77 -16 -149 -30 -161 -30 -13 0 -38 20 -65 50 -24 27 -77
85 -117 127 -60 64 -72 83 -68 103 3 14 24 111 46 215 22 105 52 249 66 320
15 72 28 136 30 143 3 9 17 6 54 -13 28 -14 77 -30 108 -36z"/>
<path d="M4570 5409 l0 -672 -110 -116 c-60 -64 -133 -139 -162 -168 -235
-231 -303 -299 -368 -369 -42 -43 -102 -101 -133 -127 -31 -27 -57 -54 -57
-61 0 -15 194 -210 214 -214 8 -2 24 12 37 30 13 18 79 88 147 154 172 167
203 198 368 364 80 80 174 172 209 206 l65 61 0 691 c0 681 -3 742 -32 742 -4
0 -44 34 -87 75 -43 41 -81 75 -85 75 -3 0 -6 -302 -6 -671z"/>
<path d="M3520 3973 c-20 -8 -40 -36 -33 -47 4 -5 2 -6 -4 -3 -5 3 -38 -23
-73 -58 -34 -36 -57 -65 -51 -65 6 0 11 -4 11 -9 0 -5 -10 -7 -22 -4 -18 4
-10 -7 29 -46 31 -30 59 -48 67 -45 8 3 17 1 21 -5 3 -7 0 -8 -9 -5 -9 3 -16
3 -16 0 0 -13 84 -95 92 -90 9 6 31 -15 83 -81 41 -53 119 -135 128 -135 3 0
7 7 9 15 2 12 6 11 16 -6 12 -19 12 -21 -2 -16 -21 8 -21 -7 0 -24 12 -10 17
-10 23 0 6 10 10 9 14 -4 5 -10 3 -14 -4 -9 -7 4 -10 1 -7 -7 2 -8 14 -18 26
-24 12 -5 22 -15 22 -22 0 -26 20 -12 21 15 3 37 4 50 13 99 9 44 13 47 136
72 25 5 38 9 28 10 -9 1 -28 21 -42 46 -15 25 -40 52 -55 60 -16 8 -41 29 -56
46 -20 24 -29 29 -35 19 -4 -7 -13 -9 -19 -6 -16 11 -13 26 4 20 22 -9 19 13
-3 25 -19 10 -84 76 -219 219 -38 39 -70 72 -73 71 -3 0 -12 -3 -20 -6z m70
-77 c0 -3 -4 -8 -10 -11 -5 -3 -10 -1 -10 4 0 6 5 11 10 11 6 0 10 -2 10 -4z
m-105 -17 c11 -16 1 -19 -13 -3 -7 8 -8 14 -3 14 5 0 13 -5 16 -11z m135 -9
c0 -5 -4 -10 -10 -10 -5 0 -10 5 -10 10 0 6 5 10 10 10 6 0 10 -4 10 -10z
m-70 -4 c0 -3 -4 -8 -10 -11 -5 -3 -10 -1 -10 4 0 6 5 11 10 11 6 0 10 -2 10
-4z m95 -16 c3 -5 1 -10 -4 -10 -6 0 -11 5 -11 10 0 6 2 10 4 10 3 0 8 -4 11
-10z m-221 -15 c-4 -8 -8 -15 -10 -15 -2 0 -4 7 -4 15 0 8 4 15 10 15 5 0 7
-7 4 -15z m36 -15 c0 -5 -4 -10 -10 -10 -5 0 -10 5 -10 10 0 6 5 10 10 10 6 0
10 -4 10 -10z m270 -56 c0 -8 -4 -12 -10 -9 -5 3 -10 10 -10 16 0 5 5 9 10 9
6 0 10 -7 10 -16z m-20 -35 c0 -6 -4 -7 -10 -4 -5 3 -10 11 -10 16 0 6 5 7 10
4 6 -3 10 -11 10 -16z m-220 -10 c0 -6 -4 -7 -10 -4 -5 3 -10 11 -10 16 0 6 5
7 10 4 6 -3 10 -11 10 -16z m296 -46 c-7 -7 -26 7 -26 19 0 6 6 6 15 -2 9 -7
13 -15 11 -17z m-221 -3 c3 -5 1 -10 -4 -10 -6 0 -11 5 -11 10 0 6 2 10 4 10
3 0 8 -4 11 -10z m285 -71 c0 -6 -4 -7 -10 -4 -5 3 -10 11 -10 16 0 6 5 7 10
4 6 -3 10 -11 10 -16z m110 -49 c0 -5 -2 -10 -4 -10 -3 0 -8 5 -11 10 -3 6 -1
10 4 10 6 0 11 -4 11 -10z m-276 -16 c9 -24 2 -26 -12 -4 -7 11 -8 20 -3 20 5
0 12 -7 15 -16z m256 -19 c11 -13 10 -14 -4 -9 -9 3 -16 10 -16 15 0 13 6 11
20 -6z m-100 -75 c0 -5 -4 -10 -10 -10 -5 0 -10 5 -10 10 0 6 5 10 10 10 6 0
10 -4 10 -10z m-30 -35 c0 -5 -5 -3 -10 5 -5 8 -10 20 -10 25 0 6 5 3 10 -5 5
-8 10 -19 10 -25z m30 -75 c0 -5 -2 -10 -4 -10 -3 0 -8 5 -11 10 -3 6 -1 10 4
10 6 0 11 -4 11 -10z"/>
</g>
</svg>
